<?xml version="1.0"?><svg width="640" height="480" xmlns="http://www.w3.org/2000/svg">
 <metadata id="metadata7">image/svg+xml</metadata>
 <g>
  <title>Layer 1</title>
  <g id="layer1">
   <g id="g3235">
    <rect fill="#000000" stroke-width="4" stroke-miterlimit="4" stroke-dashoffset="0" id="rect2383" width="140.65842" height="223.630158" x="254.335306" y="2.999998" ry="45.744564"/>
    <path fill="#00ff00" stroke-width="4" stroke-miterlimit="4" stroke-dashoffset="0" id="path2391" d="m368.164551,181.953262a43.5,31.600723 0 1 1-86.999939,0a43.5,31.600723 0 1 186.999939,0z"/>
    <path fill="#ffffff" stroke-width="4" stroke-miterlimit="4" stroke-dashoffset="0" id="path2435" d="m368.164551,114.815079a43.5,31.600723 0 1 1-86.999939,0a43.5,31.600723 0 1 186.999939,0z"/>
    <path fill="#ffffff" stroke-width="4" stroke-miterlimit="4" stroke-dashoffset="0" id="path2437" d="m368.164551,47.676884a43.5,31.600723 0 1 1-86.999939,0a43.5,31.600723 0 1 186.999939,0z"/>
    <path fill="#000000" id="path2432" d="m230.927979,209.995865c-1.496704,-0.438156 -13.942749,-11.86203 -27.667236,-25.369385c-23.041992,-22.67746 -24.768188,-24.86055 -22.53418,-28.497742c2.391235,-3.893021 2.739502,-2.697189 29.919312,-2.697189l32.647583,0l0,28.454407c0,23.956161 -0.408081,25.875824 -4.148804,27.524673c-3.383911,1.491577 -4.856689,1.568848 -8.216675,0.585236z"/>
    <path fill="#000000" id="path2441" d="m230.927979,142.857666c-1.496704,-0.438156 -13.942749,-11.862015 -27.667236,-25.369377c-23.041992,-22.67746 -24.768188,-24.86055 -22.53418,-28.497688c2.391235,-3.893074 2.739502,-2.697243 29.919312,-2.697243l32.647583,0l0,28.45446c0,23.956116 -0.408081,25.875778 -4.148804,27.524612c-3.383911,1.491577 -4.856689,1.568863 -8.216675,0.585236z"/>
    <path fill="#000000" id="path2443" d="m230.927979,75.719475c-1.496704,-0.438156 -13.942749,-11.862019 -27.667236,-25.369381c-23.041992,-22.67746 -24.768188,-24.860544 -22.53418,-28.497711c2.391235,-3.893047 2.739502,-2.697241 29.919312,-2.697241l32.647583,0l0,28.454435c0,23.956158 -0.408081,25.875828 -4.148804,27.52467c-3.383911,1.49157 -4.856689,1.568848 -8.216675,0.585228z"/>
    <g fill="#000000" id="g2451">
     <path fill="#000000" d="m418.401062,209.995865c1.496704,-0.438156 13.94281,-11.86203 27.667297,-25.369385c23.041992,-22.677475 24.768188,-24.86055 22.534119,-28.497696c-2.391235,-3.893066 -2.739441,-2.697235 -29.919312,-2.697235l-32.647522,0l0,28.454407c0,23.956161 0.40802,25.875824 4.148682,27.524673c3.384033,1.491577 4.85675,1.568848 8.216736,0.585236z" id="path2445"/>
     <path fill="#000000" d="m418.401062,142.857651c1.496704,-0.438141 13.94281,-11.862 27.667297,-25.369362c23.041992,-22.67746 24.768188,-24.86055 22.534119,-28.497696c-2.391235,-3.893074 -2.739441,-2.697243 -29.919312,-2.697243l-32.647522,0l0,28.454468c0,23.956116 0.40802,25.875824 4.148682,27.524612c3.384033,1.491577 4.85675,1.568893 8.216736,0.58522z" id="path2447"/>
     <path fill="#000000" d="m418.401062,75.719475c1.496704,-0.438164 13.94281,-11.862026 27.667297,-25.369385c23.041992,-22.677462 24.768188,-24.860546 22.534119,-28.49769c-2.391235,-3.89307 -2.739441,-2.697243 -29.919312,-2.697243l-32.647522,0l0,28.454458c0,23.956112 0.40802,25.875828 4.148682,27.524624c3.384033,1.49157 4.85675,1.568855 8.216736,0.585236z" id="path2449"/>
    </g>
    <rect fill="#000000" stroke-width="4" stroke-miterlimit="4" stroke-dashoffset="0" id="rect3244" width="78.028961" height="121.627954" x="285.650006" y="234.578086" ry="12.428765"/>
   </g>
  </g>
  <text transform="matrix(1.3326813543474572,0,0,1.073770523071289,-103.45606885693165,-25.08197784423828) " xml:space="preserve" text-anchor="middle" font-family="serif" font-size="101" id="svg_1" y="434" x="323" stroke-width="0" stroke="#000000" fill="#00ff00">GO</text>
 </g>
</svg>